# xmcd CD database file
#
# Track frame offsets:
#	150
#	15106
#	28755
#	43213
#	60328
#	74941
#	89319
#	101979
#	119078
#	132484
#	149444
#	165981
#	182612
#	196181
#
# Disc length: 2873 seconds
#
# Revision: 2
# Processed by: cddbd v1.5.2PL0 Copyright (c) Steve Scherf et al.
# Submitted via: CDex 1.50Beta7
#
DISCID=ca0b370e
DTITLE=Truck Stop - Immer Geradeaus
DYEAR=2006
DGENRE=Country
TTITLE0=Alle machen's
TTITLE1=Laxter Sand
TTITLE2=Kalte Pizza und lauwarmes Bier
TTITLE3=Grand Canyon
TTITLE4=Ist das nicht ein bisschen wenig
TTITLE5=Hand und Fuß
TTITLE6=Echte Cowboys weinen nie
TTITLE7=Alle Wege führ'n zurück zu dir
TTITLE8=Wir sind die Elbe Cowboys
TTITLE9=Engel, der zu nah am Boden fliegt
TTITLE10=Papa musste selbst erwachsen werden
TTITLE11=Susanna
TTITLE12=Blue Tattoo
TTITLE13=Immer geradeaus
EXTD=YEAR: 2006
EXTT0=
EXTT1=
EXTT2=
EXTT3=
EXTT4=
EXTT5=
EXTT6=
EXTT7=
EXTT8=
EXTT9=
EXTT10=
EXTT11=
EXTT12=
EXTT13=
PLAYORDER=
